Release Name: Rio
Release Date: 8 April 2011 (USA)/(India)
Release Length: 1hr 35mn
Tagline : Join The Party !
Storyline:When a cooped-up macaw named Blu leaves the confines of his birdcage behind for the
tropical climes of Rio de Janeiro, he's forced to wing it and re-examine everything
he knows about life -- and being a bird.

Cast

Karen Disher ... Mother Bird (voice)
Jason Fricchione ... Truck Driver (voice)
Sofia Scarpa Saldanha ... Young Linda (voice)
Leslie Mann ... Linda (voice)
Kelly Keaton ... Bookstore Customer / Lady Tourist (voice)
Jesse Eisenberg ... Blu (voice)
Wanda Sykes ... Chloe (The Goose) (voice)
Jane Lynch ... Alice (The Other Goose) (voice)
Rodrigo Santoro ... Tulio / Soccer Announcer (voice)
Gracinha Leporace ... Dr. Barbosa (voice)
Jamie Foxx ... Nico (voice)
Will i Am ... Pedro (voice) (as will.i.am)
Phil Miler ... Aviary Intern / Waiter (voice)
Anne Hathaway ... Jewel (voice)
Bernardo de Paula ... Sylvio / Kipo (voice)


Info

Genre:Animation | Adventure | Comedy
Language: English, Hindi 
Original Source: Blu Ray
Total Size: 2.53 GB 
Encoder: Harshad (HD Desi Rockers)

General
Complete name                    : Rio 3D Anaglyph.BRRip.720p.Dual Audio.[6ch-dts-ac3][Eng-Hindi]~Harshad.mkv
Format                           : Matroska
File size                        : 2.53 GiB
Duration                         : 1h 35mn
Overall bit rate                 : 3 768 Kbps
Encoded date                     : UTC 2011-09-14 07:54:06
Writing application              : mkvmerge v4.8.0 ('I Got The...') built on May 24 2011 03:12:58
Writing library                  : libebml v1.2.0 + libmatroska v1.1.0


Video
ID                               : 1
Format                           : AVC
Format/Info                      : Advanced Video Codec
Format profile                   : High@L4.1
Format settings, CABAC           : Yes
Format settings, ReFrames        : 1 frame
Muxing mode                      : Container profile=Unknown@4.1
Codec ID                         : V_MPEG4/ISO/AVC
Duration                         : 1h 35mn
Bit rate                         : 2 882 Kbps
Width                            : 1 280 pixels
Height                           : 528 pixels
Display aspect ratio             : 16:9
Original display aspect ratio    : 2.40:1
Frame rate                       : 23.976 fps
Color space                      : YUV
Chroma subsampling               : 4:2:0
Bit depth                        : 8 bits
Scan type                        : Progressive
Bits/(Pixel*Frame)               : 0.178
Stream size                      : 1.87 GiB (74%)
Writing library                  : x264 core 68 r1195bm 5d75a9b

Audio #1
ID                               : 2
Format                           : AC-3
Format/Info                      : Audio Coding 3
Mode extension                   : CM (complete main)
Codec ID                         : A_AC3
Duration                         : 1h 35mn
Bit rate mode                    : Constant
Bit rate                         : 448 Kbps
Channel(s)                       : 6 channels
Channel positions                : Front: L C R, Side: L R, LFE
Sampling rate                    : 48.0 KHz
Stream size                      : 307 MiB (12%)
Title                            : Eng 6ch - Harshad

Audio #2
ID                               : 3
Format                           : AC-3
Format/Info                      : Audio Coding 3
Mode extension                   : CM (complete main)
Codec ID                         : A_AC3
Duration                         : 1h 35mn
Bit rate mode                    : Constant
Bit rate                         : 448 Kbps
Channel(s)                       : 6 channels
Channel positions                : Front: L C R, Side: L R, LFE
Sampling rate                    : 48.0 KHz
Stream size                      : 307 MiB (12%)
Title                            : Hindi 6ch - Harshad
Language                         : Hindi


Screenshots
 
http://www.pix2links.com/images/28439330359364159124.jpg 
http://www.pix2links.com/images/33766010846655595860.jpg 
http://www.pix2links.com/images/20772711522515428339.jpg 
http://www.pix2links.com/images/12164271793631018444.jpg 
http://www.pix2links.com/images/15947815737573045155.jpg 
http://www.pix2links.com/images/37439744123873717473.jpg


